<svg width="135" height="40" viewBox="0 0 135 40" fill="none" xmlns="http://www.w3.org/2000/svg">
<g clip-path="url(#clip0_674_3090)">
<path d="M130 0H5C2.23858 0 0 2.23858 0 5V35C0 37.7614 2.23858 40 5 40H130C132.761 40 135 37.7614 135 35V5C135 2.23858 132.761 0 130 0Z" fill="white"/>
<path d="M130 0.7998C131.114 0.801086 132.181 1.24403 132.968 2.03145C133.756 2.81887 134.199 3.88646 134.2 5V35C134.199 36.1135 133.756 37.1811 132.968 37.9685C132.181 38.7559 131.114 39.1989 130 39.2002H5C3.88645 39.1989 2.81888 38.756 2.0315 37.9686C1.24412 37.1811 0.801231 36.1135 0.8 35V5C0.801212 3.88644 1.24409 2.81884 2.03148 2.03142C2.81886 1.244 3.88644 0.801065 5 0.7998H130ZM130 0H5C3.67511 0.0038781 2.40559 0.531908 1.46875 1.46875C0.531908 2.40559 0.0038781 3.67511 0 5L0 35C0.0038781 36.3249 0.531908 37.5944 1.46875 38.5312C2.40559 39.4681 3.67511 39.9961 5 40H130C131.325 39.9961 132.594 39.4681 133.531 38.5312C134.468 37.5944 134.996 36.3249 135 35V5C134.996 3.67511 134.468 2.40559 133.531 1.46875C132.594 0.531908 131.325 0.0038781 130 0Z" fill="black"/>
<path d="M47.4184 10.2433C47.4366 10.6103 47.3799 10.9771 47.2518 11.3214C47.1237 11.6658 46.9268 11.9804 46.6732 12.2462C46.389 12.541 46.0457 12.7724 45.6659 12.9254C45.2861 13.0784 44.8783 13.1494 44.4691 13.1339C44.0573 13.1376 43.649 13.059 43.268 12.9026C42.8871 12.7462 42.5412 12.5152 42.2508 12.2233C41.9604 11.9313 41.7313 11.5842 41.5769 11.2024C41.4226 10.8207 41.3461 10.4119 41.352 10.0001C41.3462 9.58837 41.4227 9.17959 41.577 8.79781C41.7314 8.41603 41.9605 8.06895 42.2509 7.77695C42.5413 7.48496 42.8871 7.25395 43.268 7.09748C43.649 6.94102 44.0573 6.86226 44.4691 6.86584C44.8925 6.86456 45.3116 6.95016 45.7006 7.11734C46.0619 7.26378 46.3834 7.49348 46.6391 7.78774L46.1117 8.31554C45.9107 8.07899 45.6581 7.89178 45.3733 7.76834C45.0885 7.64491 44.7791 7.58856 44.4691 7.60364C44.157 7.60202 43.8478 7.66341 43.56 7.78412C43.2722 7.90483 43.0118 8.08239 42.7942 8.30615C42.5767 8.52991 42.4065 8.79527 42.2939 9.08635C42.1814 9.37743 42.1287 9.68823 42.1391 10.0001C42.1317 10.4673 42.2631 10.9262 42.5168 11.3186C42.7705 11.711 43.135 12.0192 43.5641 12.2041C43.9932 12.3891 44.4676 12.4425 44.927 12.3575C45.3865 12.2725 45.8104 12.0529 46.1449 11.7267C46.4528 11.395 46.6313 10.9637 46.6478 10.5113H44.4691V9.79064H47.3764C47.4039 9.93998 47.4179 10.0915 47.4184 10.2433Z" fill="black"/>
<path d="M52.0277 7.73744H49.2953V9.63974H51.7592V10.3605H49.2953V12.2628H52.0277V13.0001H48.5248V7.00014H52.0277V7.73744Z" fill="black"/>
<path d="M55.2787 13.0001H54.5072V7.73744H52.8314V7.00014H56.9545V7.73744H55.2787V13.0001Z" fill="black"/>
<path d="M59.9379 13.0001V7.00014H60.7084V13.0001H59.9379Z" fill="black"/>
<path d="M64.1283 13.0001H63.3568V7.73744H61.6811V7.00014H65.8041V7.73744H64.1283V13.0001Z" fill="black"/>
<path d="M73.6093 12.2247C73.0253 12.807 72.2343 13.1339 71.4096 13.1339C70.5849 13.1339 69.7939 12.807 69.2099 12.2247C68.921 11.9321 68.6939 11.5844 68.542 11.2022C68.3902 10.82 68.3168 10.4113 68.3261 10.0001C68.3168 9.58902 68.3902 9.18023 68.542 8.79807C68.6939 8.4159 68.921 8.06817 69.2099 7.77554C69.4986 7.48681 69.8413 7.25784 70.2186 7.10174C70.5958 6.94564 71.0002 6.86548 71.4085 6.86584C71.8167 6.8662 72.2209 6.94708 72.5979 7.10385C72.9749 7.26062 73.3173 7.49019 73.6054 7.77944C73.8945 8.0713 74.1221 8.41825 74.2746 8.79972C74.4271 9.18119 74.5014 9.5894 74.4931 10.0001C74.5022 10.4112 74.4286 10.8199 74.2768 11.2021C74.125 11.5842 73.898 11.932 73.6093 12.2247ZM69.7792 11.7223C70.2117 12.1541 70.7979 12.3966 71.4091 12.3966C72.0203 12.3966 72.6065 12.1541 73.039 11.7223C73.2608 11.4953 73.4343 11.2256 73.5489 10.9296C73.6636 10.6336 73.717 10.3174 73.706 10.0001C73.717 9.6829 73.6636 9.36672 73.5489 9.07072C73.4343 8.77471 73.2608 8.50502 73.039 8.27794C72.6065 7.84615 72.0203 7.60363 71.4091 7.60363C70.7979 7.60363 70.2117 7.84615 69.7792 8.27794C69.5577 8.5052 69.3845 8.77495 69.2701 9.07092C69.1556 9.3669 69.1022 9.68299 69.1132 10.0001C69.1022 10.3173 69.1556 10.6334 69.2701 10.9294C69.3845 11.2253 69.5577 11.4951 69.7792 11.7223Z" fill="black"/>
<path d="M75.5751 13.0001V7.00014H76.5136L79.4296 11.6676H79.4628L79.4296 10.5113V7.00014H80.2011V13.0001H79.3964L76.3456 8.10654H76.3124L76.3456 9.26284V13.0001H75.5751Z" fill="black"/>
<path d="M47.4184 10.2433C47.4366 10.6103 47.3799 10.9771 47.2518 11.3214C47.1237 11.6658 46.9268 11.9804 46.6732 12.2462C46.389 12.541 46.0457 12.7724 45.6659 12.9254C45.2861 13.0784 44.8783 13.1494 44.4691 13.1339C44.0573 13.1376 43.649 13.059 43.268 12.9026C42.8871 12.7462 42.5412 12.5152 42.2508 12.2233C41.9604 11.9313 41.7313 11.5842 41.5769 11.2024C41.4226 10.8207 41.3461 10.4119 41.352 10.0001C41.3462 9.58837 41.4227 9.17959 41.577 8.79781C41.7314 8.41603 41.9605 8.06895 42.2509 7.77695C42.5413 7.48496 42.8871 7.25395 43.268 7.09748C43.649 6.94102 44.0573 6.86226 44.4691 6.86584C44.8925 6.86456 45.3116 6.95016 45.7006 7.11734C46.0619 7.26378 46.3834 7.49348 46.6391 7.78774L46.1117 8.31554C45.9107 8.07899 45.6581 7.89178 45.3733 7.76834C45.0885 7.64491 44.7791 7.58856 44.4691 7.60364C44.157 7.60202 43.8478 7.66341 43.56 7.78412C43.2722 7.90483 43.0118 8.08239 42.7942 8.30615C42.5767 8.52991 42.4065 8.79527 42.2939 9.08635C42.1814 9.37743 42.1287 9.68823 42.1391 10.0001C42.1317 10.4673 42.2631 10.9262 42.5168 11.3186C42.7705 11.711 43.135 12.0192 43.5641 12.2041C43.9932 12.3891 44.4676 12.4425 44.927 12.3575C45.3865 12.2725 45.8104 12.0529 46.1449 11.7267C46.4528 11.395 46.6313 10.9637 46.6478 10.5113H44.4691V9.79064H47.3764C47.4039 9.93998 47.4179 10.0915 47.4184 10.2433Z" stroke="black" stroke-width="0.2" stroke-miterlimit="10"/>
<path d="M52.0277 7.73744H49.2953V9.63974H51.7592V10.3605H49.2953V12.2628H52.0277V13.0001H48.5248V7.00014H52.0277V7.73744Z" stroke="black" stroke-width="0.2" stroke-miterlimit="10"/>
<path d="M55.2787 13.0001H54.5072V7.73744H52.8314V7.00014H56.9545V7.73744H55.2787V13.0001Z" stroke="black" stroke-width="0.2" stroke-miterlimit="10"/>
<path d="M59.9379 13.0001V7.00014H60.7084V13.0001H59.9379Z" stroke="black" stroke-width="0.2" stroke-miterlimit="10"/>
<path d="M64.1283 13.0001H63.3568V7.73744H61.6811V7.00014H65.8041V7.73744H64.1283V13.0001Z" stroke="black" stroke-width="0.2" stroke-miterlimit="10"/>
<path d="M73.6093 12.2247C73.0253 12.807 72.2343 13.1339 71.4096 13.1339C70.5849 13.1339 69.7939 12.807 69.2099 12.2247C68.921 11.9321 68.6939 11.5844 68.542 11.2022C68.3902 10.82 68.3168 10.4113 68.3261 10.0001C68.3168 9.58902 68.3902 9.18023 68.542 8.79807C68.6939 8.4159 68.921 8.06817 69.2099 7.77554C69.4986 7.48681 69.8413 7.25784 70.2186 7.10174C70.5958 6.94564 71.0002 6.86548 71.4085 6.86584C71.8167 6.8662 72.2209 6.94708 72.5979 7.10385C72.9749 7.26062 73.3173 7.49019 73.6054 7.77944C73.8945 8.0713 74.1221 8.41825 74.2746 8.79972C74.4271 9.18119 74.5014 9.5894 74.4931 10.0001C74.5022 10.4112 74.4286 10.8199 74.2768 11.2021C74.125 11.5842 73.898 11.932 73.6093 12.2247ZM69.7792 11.7223C70.2117 12.1541 70.7979 12.3966 71.4091 12.3966C72.0203 12.3966 72.6065 12.1541 73.039 11.7223C73.2608 11.4953 73.4343 11.2256 73.5489 10.9296C73.6636 10.6336 73.717 10.3174 73.706 10.0001C73.717 9.6829 73.6636 9.36672 73.5489 9.07072C73.4343 8.77471 73.2608 8.50502 73.039 8.27794C72.6065 7.84615 72.0203 7.60363 71.4091 7.60363C70.7979 7.60363 70.2117 7.84615 69.7792 8.27794C69.5577 8.5052 69.3845 8.77495 69.2701 9.07092C69.1556 9.3669 69.1022 9.68299 69.1132 10.0001C69.1022 10.3173 69.1556 10.6334 69.2701 10.9294C69.3845 11.2253 69.5577 11.4951 69.7792 11.7223Z" stroke="black" stroke-width="0.2" stroke-miterlimit="10"/>
<path d="M75.5751 13.0001V7.00014H76.5136L79.4296 11.6676H79.4628L79.4296 10.5113V7.00014H80.2011V13.0001H79.3964L76.3456 8.10654H76.3124L76.3456 9.26284V13.0001H75.5751Z" stroke="black" stroke-width="0.2" stroke-miterlimit="10"/>
<path d="M68.1357 21.7519C67.2952 21.7551 66.4745 22.0073 65.7772 22.4766C65.0799 22.9458 64.5373 23.6112 64.2178 24.3887C63.8984 25.1661 63.8165 26.0208 63.9824 26.8448C64.1483 27.6687 64.5547 28.4251 65.1501 29.0183C65.7456 29.6115 66.5035 30.0149 67.3281 30.1777C68.1527 30.3405 69.007 30.2554 69.7832 29.933C70.5595 29.6106 71.2228 29.0654 71.6894 28.3663C72.156 27.6672 72.4051 26.8456 72.405 26.0051C72.4133 25.4429 72.3084 24.8848 72.0966 24.364C71.8847 23.8432 71.5703 23.3703 71.172 22.9735C70.7737 22.5767 70.2996 22.264 69.778 22.0542C69.2564 21.8443 68.6979 21.7416 68.1357 21.7519ZM68.1357 28.5828C67.6181 28.6197 67.1014 28.4999 66.6528 28.239C66.2042 27.9781 65.8445 27.5882 65.6207 27.12C65.3968 26.6519 65.319 26.1272 65.3975 25.6142C65.476 25.1012 65.7071 24.6238 66.0608 24.244C66.4144 23.8642 66.8742 23.5997 67.3803 23.4849C67.8864 23.3701 68.4153 23.4104 68.8982 23.6004C69.3811 23.7904 69.7956 24.1214 70.0877 24.5503C70.3799 24.9792 70.5361 25.4861 70.5361 26.0051C70.5519 26.3329 70.5018 26.6606 70.389 26.9688C70.2761 27.277 70.1028 27.5595 69.8791 27.7997C69.6554 28.0399 69.386 28.2329 69.0866 28.3674C68.7872 28.5019 68.4639 28.5751 68.1357 28.5828ZM58.8223 21.7519C57.9818 21.7551 57.1611 22.0073 56.4638 22.4765C55.7665 22.9458 55.2238 23.6112 54.9044 24.3886C54.5849 25.166 54.503 26.0207 54.6689 26.8447C54.8348 27.6687 55.2411 28.425 55.8366 29.0182C56.4321 29.6114 57.1899 30.0149 58.0145 30.1777C58.8391 30.3405 59.6935 30.2554 60.4697 29.933C61.246 29.6106 61.9093 29.0654 62.3759 28.3663C62.8425 27.6672 63.0916 26.8456 63.0915 26.0051C63.0998 25.4429 62.9949 24.8848 62.7831 24.364C62.5713 23.8432 62.2568 23.3703 61.8585 22.9735C61.4602 22.5767 60.9862 22.2641 60.4646 22.0542C59.943 21.8444 59.3845 21.7416 58.8223 21.7519ZM58.8223 28.5828C58.3047 28.6197 57.788 28.4999 57.3394 28.239C56.8908 27.9781 56.5311 27.5882 56.3073 27.12C56.0834 26.6519 56.0056 26.1272 56.0841 25.6142C56.1626 25.1012 56.3937 24.6238 56.7474 24.244C57.101 23.8642 57.5608 23.5997 58.0669 23.4849C58.573 23.3701 59.1019 23.4104 59.5848 23.6004C60.0677 23.7904 60.4822 24.1214 60.7743 24.5503C61.0665 24.9792 61.2227 25.4861 61.2227 26.0051C61.2385 26.3329 61.1884 26.6606 61.0756 26.9688C60.9628 27.277 60.7894 27.5595 60.5657 27.7997C60.342 28.0399 60.0726 28.2329 59.7732 28.3674C59.4738 28.5019 59.1505 28.5751 58.8223 28.5828ZM47.7435 23.0569V24.8612H52.0612C51.9989 25.7076 51.6526 26.508 51.0784 27.1329C50.6458 27.5739 50.1254 27.9193 49.551 28.1468C48.9766 28.3744 48.3609 28.479 47.7435 28.4538C46.4815 28.4368 45.277 27.9234 44.3906 27.025C43.5042 26.1265 43.0072 24.9151 43.0072 23.653C43.0072 22.3908 43.5042 21.1794 44.3906 20.2809C45.277 19.3825 46.4815 18.8691 47.7435 18.8521C48.9558 18.8362 50.1253 19.2994 50.9979 20.1409L52.2706 18.8682C51.6752 18.2787 50.9681 17.814 50.1907 17.5014C49.4133 17.1888 48.5813 17.0345 47.7435 17.0476C46.868 17.0349 45.9987 17.1963 45.1862 17.5226C44.3736 17.8488 43.634 18.3333 43.0104 18.9479C42.3867 19.5625 41.8915 20.295 41.5535 21.1027C41.2155 21.9105 41.0414 22.7773 41.0414 23.653C41.0414 24.5286 41.2155 25.3954 41.5535 26.2032C41.8915 27.0109 42.3867 27.7434 43.0104 28.358C43.634 28.9726 44.3736 29.4571 45.1862 29.7833C45.9987 30.1096 46.868 30.271 47.7435 30.2582C48.599 30.2937 49.4522 30.1469 50.2466 29.8275C51.041 29.508 51.7584 29.0234 52.3511 28.4056C53.4036 27.2568 53.9645 25.7418 53.9139 24.1847C53.9181 23.8065 53.8857 23.4289 53.8171 23.0569H47.7435ZM93.0518 24.4585C92.7962 23.6881 92.3097 23.0151 91.6583 22.5309C91.0069 22.0466 90.2222 21.7747 89.4108 21.7519C88.8644 21.7553 88.3243 21.8695 87.8232 22.0875C87.3221 22.3056 86.8704 22.623 86.4955 23.0205C86.1205 23.4181 85.8301 23.8875 85.6417 24.4005C85.4533 24.9135 85.3709 25.4593 85.3994 26.0051C85.3871 26.5642 85.4876 27.1202 85.695 27.6396C85.9024 28.1591 86.2123 28.6314 86.6063 29.0284C87.0002 29.4254 87.4702 29.7389 87.9881 29.9502C88.5059 30.1615 89.0611 30.2663 89.6203 30.2582C90.321 30.2621 91.0116 30.0919 91.6302 29.7629C92.2489 29.4339 92.7761 28.9565 93.1645 28.3734L91.7146 27.4067C91.4974 27.7675 91.1902 28.0656 90.823 28.2717C90.4559 28.4779 90.0414 28.5851 89.6203 28.5828C89.187 28.5993 88.7588 28.4853 88.391 28.2555C88.0233 28.0257 87.7331 27.6907 87.5581 27.2939L93.2452 24.9419L93.0518 24.4585ZM87.2521 25.8762C87.2321 25.5667 87.274 25.2562 87.3754 24.9631C87.4768 24.6699 87.6357 24.3999 87.8427 24.1689C88.0497 23.9379 88.3007 23.7505 88.581 23.6176C88.8614 23.4848 89.1654 23.4092 89.4753 23.3953C89.7979 23.374 90.1197 23.4483 90.4005 23.6087C90.6813 23.7691 90.9086 24.0087 91.0541 24.2974L87.2521 25.8762ZM82.6283 30.0005H84.4971V17.4988H82.6283V30.0005ZM79.5673 22.7024H79.5029C79.2188 22.3938 78.8721 22.1493 78.4859 21.9854C78.0997 21.8215 77.683 21.7419 77.2635 21.7519C76.1669 21.7986 75.1306 22.2671 74.3711 23.0596C73.6116 23.8521 73.1876 24.9074 73.1876 26.0051C73.1876 27.1028 73.6116 28.158 74.3711 28.9506C75.1306 29.7431 76.1669 30.2116 77.2635 30.2582C77.6846 30.2695 78.1031 30.1888 78.4898 30.0219C78.8766 29.8549 79.2223 29.6057 79.5029 29.2917H79.5673V29.9039C79.5673 31.5311 78.6974 32.4009 77.2957 32.4009C76.8286 32.3898 76.3754 32.2398 75.9938 31.9701C75.6122 31.7004 75.3196 31.3232 75.1531 30.8865L73.5259 31.5632C73.8326 32.3099 74.3553 32.948 75.0269 33.3958C75.6985 33.8435 76.4886 34.0805 77.2957 34.0764C79.4868 34.0764 81.3395 32.7876 81.3395 29.646V22.0096H79.5673V22.7024ZM77.4247 28.5828C76.7788 28.528 76.177 28.2327 75.7384 27.7553C75.2998 27.278 75.0564 26.6534 75.0564 26.0051C75.0564 25.3568 75.2998 24.7322 75.7384 24.2549C76.177 23.7775 76.7788 23.4822 77.4247 23.4275C77.7461 23.4431 78.061 23.5234 78.3507 23.6634C78.6404 23.8034 78.8989 24.0002 79.1109 24.2423C79.3229 24.4843 79.4839 24.7666 79.5845 25.0722C79.6851 25.3778 79.7231 25.7005 79.6962 26.0212C79.7214 26.3398 79.682 26.6602 79.5804 26.9633C79.4788 27.2663 79.3172 27.5458 79.1051 27.7849C78.8931 28.0241 78.635 28.218 78.3462 28.3551C78.0575 28.4921 77.7441 28.5696 77.4247 28.5828ZM101.806 17.4991H97.3345V30.0005H99.2002V25.264H101.806C102.334 25.293 102.862 25.214 103.358 25.032C103.854 24.8499 104.308 24.5686 104.692 24.2053C105.076 23.8419 105.381 23.4041 105.59 22.9186C105.799 22.4331 105.907 21.9101 105.907 21.3815C105.907 20.853 105.799 20.33 105.59 19.8445C105.381 19.359 105.076 18.9212 104.692 18.5578C104.308 18.1945 103.854 17.9132 103.358 17.7311C102.862 17.5491 102.334 17.4701 101.806 17.4991ZM101.854 23.5243H99.2002V19.239H101.854C102.139 19.233 102.422 19.2841 102.688 19.3891C102.953 19.4941 103.194 19.651 103.398 19.8506C103.602 20.0501 103.764 20.2883 103.874 20.5512C103.985 20.8141 104.041 21.0964 104.041 21.3816C104.041 21.6668 103.985 21.9491 103.874 22.212C103.764 22.4749 103.602 22.7131 103.398 22.9126C103.194 23.1122 102.953 23.2691 102.688 23.3741C102.422 23.4791 102.139 23.5302 101.854 23.5243ZM113.386 21.729C112.705 21.6892 112.027 21.8491 111.435 22.1891C110.844 22.5291 110.365 23.0343 110.056 23.6428L111.713 24.3344C111.877 24.0324 112.126 23.7848 112.429 23.622C112.732 23.4592 113.075 23.3882 113.418 23.4177C113.891 23.3714 114.363 23.5148 114.731 23.8163C115.099 24.1177 115.332 24.5528 115.38 25.0259V25.1546C114.781 24.8363 114.112 24.6706 113.434 24.6721C111.649 24.6721 109.831 25.6532 109.831 27.4867C109.849 27.8732 109.943 28.2521 110.11 28.6012C110.277 28.9503 110.512 29.2623 110.801 29.5189C111.091 29.7754 111.429 29.9711 111.795 30.0945C112.162 30.2178 112.55 30.2663 112.935 30.2369C113.405 30.2646 113.874 30.1658 114.292 29.9508C114.711 29.7359 115.064 29.4126 115.316 29.0147H115.38V29.9797H117.181V25.1868C117.181 22.9673 115.525 21.729 113.386 21.729ZM113.16 28.5803C112.549 28.5803 111.697 28.2748 111.697 27.5189C111.697 26.554 112.758 26.184 113.675 26.184C114.271 26.1681 114.859 26.3125 115.38 26.6021C115.311 27.1444 115.049 27.6435 114.641 28.0071C114.233 28.3708 113.707 28.5744 113.16 28.5803ZM123.743 22.0023L121.604 27.4223H121.54L119.32 22.0023H117.31L120.639 29.5775L118.741 33.7913H120.687L125.818 22.0023H123.743ZM106.936 30.0005H108.802V17.4991H106.936V30.0005Z" fill="black"/>
<path fill-rule="evenodd" clip-rule="evenodd" d="M10.1563 7.96666C10.0382 8.23416 9.9729 8.56193 9.9729 8.94318V31.0592C9.9729 31.4413 10.0382 31.7691 10.1565 32.0365L22.1904 20.0008L10.1563 7.96666ZM10.8515 32.7557C11.2975 32.9465 11.8794 32.886 12.5139 32.5262L26.671 24.4814L22.8975 20.7079L10.8515 32.7557ZM27.5734 23.9696L32.0149 21.4462C33.4119 20.6512 33.4119 19.3522 32.0149 18.5582L27.5715 16.0333L23.6046 20.0008L27.5734 23.9696ZM26.6697 15.5209L12.5139 7.47719C11.8794 7.11661 11.2975 7.05645 10.8514 7.24759L22.8975 19.2937L26.6697 15.5209Z" fill="black"/>
</g>
<defs>
<clipPath id="clip0_674_3090">
<rect width="135" height="40.0002" fill="white"/>
</clipPath>
</defs>
</svg>
