<svg width="33" height="32" viewBox="0 0 33 32" fill="none" xmlns="http://www.w3.org/2000/svg">
<path d="M11.6475 1.05225C8.45019 2.16142 5.69285 4.26667 3.78046 7.05876C1.86808 9.85085 0.901465 13.1826 1.02259 16.5647C1.14372 19.9467 2.34621 23.2008 4.45343 25.8489C6.56065 28.4971 9.46153 30.3997 12.73 31.2773C15.3798 31.961 18.156 31.991 20.82 31.3648C23.2333 30.8227 25.4644 29.6632 27.295 27.9998C29.2002 26.2156 30.5831 23.9459 31.295 21.4348C32.0685 18.7039 32.2062 15.8321 31.6975 13.0398H16.8175V19.2123H25.435C25.2628 20.1967 24.8937 21.1363 24.3499 21.9748C23.806 22.8133 23.0986 23.5335 22.27 24.0923C21.2178 24.7886 20.0316 25.257 18.7875 25.4673C17.5399 25.6993 16.2601 25.6993 15.0125 25.4673C13.7479 25.2061 12.5516 24.6842 11.5 23.9348C9.81036 22.7387 8.54168 21.0396 7.87499 19.0798C7.19721 17.0832 7.19721 14.9188 7.87499 12.9223C8.34955 11.5228 9.13407 10.2486 10.17 9.19475C11.3555 7.96662 12.8563 7.08874 14.5079 6.65744C16.1594 6.22614 17.8979 6.25808 19.5325 6.74975C20.8095 7.14156 21.9772 7.82645 22.9425 8.74975C23.9142 7.78308 24.8842 6.81392 25.8525 5.84225C26.3525 5.31975 26.8975 4.82225 27.39 4.28725C25.9163 2.91605 24.1866 1.84901 22.3 1.14725C18.8642 -0.100274 15.1049 -0.1338 11.6475 1.05225Z" fill="white" fill-opacity="0.2"/>
<path d="M11.6474 1.05249C15.1046 -0.134368 18.8639 -0.101725 22.2999 1.14499C24.1869 1.85152 25.9158 2.92369 27.3874 4.29999C26.8874 4.83499 26.3599 5.33499 25.8499 5.85499C24.8799 6.82332 23.9108 7.78832 22.9424 8.74999C21.9772 7.82668 20.8094 7.1418 19.5324 6.74999C17.8984 6.25659 16.16 6.22281 14.508 6.65235C12.856 7.08188 11.3542 7.95814 10.1674 9.18499C9.13153 10.2388 8.34701 11.513 7.87244 12.9125L2.68994 8.89999C4.54496 5.22139 7.75681 2.40755 11.6474 1.05249Z" fill="#E33629" fill-opacity="0.2"/>
<path d="M1.31512 12.8754C1.59347 11.4948 2.05593 10.1579 2.69012 8.90039L7.87262 12.9229C7.19484 14.9194 7.19484 17.0838 7.87262 19.0804C6.14595 20.4137 4.41845 21.7537 2.69012 23.1004C1.103 19.9412 0.618951 16.3416 1.31512 12.8754Z" fill="#F8BD00" fill-opacity="0.2"/>
<path d="M16.8175 13.0371H31.6975C32.2062 15.8295 32.0686 18.7012 31.295 21.4321C30.5831 23.9433 29.2002 26.213 27.295 27.9971C25.6225 26.6921 23.9425 25.3971 22.27 24.0921C23.0992 23.5328 23.8069 22.8118 24.3508 21.9724C24.8946 21.133 25.2634 20.1925 25.435 19.2071H16.8175C16.815 17.1521 16.8175 15.0946 16.8175 13.0371Z" fill="#587DBD" fill-opacity="0.2"/>
<path d="M2.6875 23.1001C4.41583 21.7667 6.14333 20.4267 7.87 19.0801C8.53802 21.0406 9.80851 22.7398 11.5 23.9351C12.5549 24.681 13.7537 25.1987 15.02 25.4551C16.2676 25.6871 17.5474 25.6871 18.795 25.4551C20.0391 25.2448 21.2253 24.7764 22.2775 24.0801C23.95 25.3851 25.63 26.6801 27.3025 27.9851C25.4722 29.6494 23.241 30.8098 20.8275 31.3526C18.1635 31.9788 15.3873 31.9488 12.7375 31.2651C10.6418 30.7055 8.68419 29.7191 6.9875 28.3676C5.19182 26.9416 3.72509 25.1449 2.6875 23.1001Z" fill="#319F43" fill-opacity="0.2"/>
</svg>
