<svg width="624" height="86" viewBox="0 0 624 86" fill="none" xmlns="http://www.w3.org/2000/svg">
<path d="M1.76136 18V3.45455H6.67614C7.81724 3.45455 8.75 3.66051 9.47443 4.07244C10.2036 4.47964 10.7434 5.03125 11.0938 5.72727C11.4441 6.4233 11.6193 7.19981 11.6193 8.05682C11.6193 8.91383 11.4441 9.69271 11.0938 10.3935C10.7481 11.0942 10.2131 11.6529 9.48864 12.0696C8.7642 12.4815 7.83617 12.6875 6.70455 12.6875H3.18182V11.125H6.64773C7.42898 11.125 8.05634 10.9901 8.52983 10.7202C9.00331 10.4503 9.34659 10.0857 9.55966 9.62642C9.77746 9.16241 9.88636 8.6392 9.88636 8.05682C9.88636 7.47443 9.77746 6.9536 9.55966 6.49432C9.34659 6.03504 9.00095 5.67519 8.52273 5.41477C8.04451 5.14962 7.41004 5.01705 6.61932 5.01705H3.52273V18H1.76136ZM17.4396 18.2557C16.7483 18.2557 16.121 18.1255 15.5575 17.8651C14.9941 17.5999 14.5466 17.2188 14.2152 16.7216C13.8838 16.2197 13.718 15.6136 13.718 14.9034C13.718 14.2784 13.8411 13.7718 14.0874 13.3835C14.3336 12.9905 14.6626 12.6828 15.0746 12.4602C15.4865 12.2377 15.9411 12.072 16.4382 11.9631C16.9401 11.8494 17.4444 11.7595 17.951 11.6932C18.6139 11.608 19.1513 11.544 19.5632 11.5014C19.9799 11.4541 20.2829 11.3759 20.4723 11.267C20.6664 11.1581 20.7635 10.9687 20.7635 10.6989V10.642C20.7635 9.94129 20.5717 9.39678 20.1882 9.00852C19.8094 8.62027 19.2341 8.42614 18.4624 8.42614C17.6622 8.42614 17.0348 8.60133 16.5803 8.9517C16.1257 9.30208 15.8061 9.67614 15.6214 10.0739L14.0305 9.50568C14.3146 8.8428 14.6934 8.3267 15.1669 7.95739C15.6451 7.58333 16.166 7.32292 16.7294 7.17614C17.2976 7.02462 17.8563 6.94886 18.4055 6.94886C18.7559 6.94886 19.1584 6.99148 19.6129 7.0767C20.0722 7.1572 20.5149 7.32528 20.9411 7.58097C21.3719 7.83665 21.7294 8.22254 22.0135 8.73864C22.2976 9.25473 22.4396 9.94602 22.4396 10.8125V18H20.7635V16.5227H20.6783C20.5646 16.7595 20.3752 17.0128 20.1101 17.2827C19.8449 17.5526 19.4922 17.7822 19.0518 17.9716C18.6115 18.161 18.0741 18.2557 17.4396 18.2557ZM17.6953 16.75C18.3582 16.75 18.9169 16.6198 19.3714 16.3594C19.8307 16.099 20.1764 15.7628 20.4084 15.3509C20.6451 14.9389 20.7635 14.5057 20.7635 14.0511V12.517C20.6925 12.6023 20.5362 12.6804 20.2947 12.7514C20.058 12.8177 19.7834 12.8769 19.4709 12.929C19.1631 12.9763 18.8625 13.0189 18.5689 13.0568C18.2801 13.09 18.0457 13.1184 17.8658 13.142C17.4302 13.1989 17.023 13.2912 16.6442 13.419C16.2701 13.5421 15.9671 13.7292 15.7351 13.9801C15.5078 14.2263 15.3942 14.5625 15.3942 14.9886C15.3942 15.571 15.6096 16.0114 16.0405 16.3097C16.4761 16.6032 17.0277 16.75 17.6953 16.75ZM33.2262 9.53409L31.7205 9.96023C31.6258 9.70928 31.4862 9.46544 31.3015 9.22869C31.1216 8.98722 30.8754 8.78835 30.5629 8.6321C30.2504 8.47585 29.8503 8.39773 29.3626 8.39773C28.695 8.39773 28.1386 8.55161 27.6935 8.85938C27.2532 9.16241 27.033 9.5483 27.033 10.017C27.033 10.4337 27.1845 10.7628 27.4876 11.0043C27.7906 11.2457 28.2641 11.447 28.908 11.608L30.5273 12.0057C31.5027 12.2424 32.2295 12.6046 32.7077 13.0923C33.186 13.5753 33.4251 14.1979 33.4251 14.9602C33.4251 15.5852 33.2451 16.1439 32.8853 16.6364C32.5302 17.1288 32.033 17.517 31.3938 17.8011C30.7546 18.0852 30.0112 18.2273 29.1637 18.2273C28.051 18.2273 27.1301 17.9858 26.4009 17.5028C25.6718 17.0199 25.2101 16.3144 25.016 15.3864L26.6069 14.9886C26.7584 15.5758 27.0449 16.0161 27.4663 16.3097C27.8924 16.6032 28.4487 16.75 29.1353 16.75C29.9165 16.75 30.5368 16.5843 30.9961 16.2528C31.4601 15.9167 31.6921 15.5142 31.6921 15.0455C31.6921 14.6667 31.5595 14.3494 31.2944 14.0938C31.0292 13.8333 30.622 13.6392 30.0728 13.5114L28.2546 13.0852C27.2556 12.8485 26.5217 12.4815 26.0529 11.9844C25.5889 11.4825 25.3569 10.8551 25.3569 10.1023C25.3569 9.48674 25.5297 8.94223 25.8754 8.46875C26.2257 7.99527 26.7016 7.62358 27.3029 7.35369C27.909 7.08381 28.5955 6.94886 29.3626 6.94886C30.4421 6.94886 31.2897 7.18561 31.9052 7.65909C32.5254 8.13258 32.9658 8.75758 33.2262 9.53409ZM43.6754 9.53409L42.1697 9.96023C42.075 9.70928 41.9354 9.46544 41.7507 9.22869C41.5708 8.98722 41.3246 8.78835 41.0121 8.6321C40.6996 8.47585 40.2995 8.39773 39.8118 8.39773C39.1442 8.39773 38.5878 8.55161 38.1428 8.85938C37.7024 9.16241 37.4822 9.5483 37.4822 10.017C37.4822 10.4337 37.6338 10.7628 37.9368 11.0043C38.2398 11.2457 38.7133 11.447 39.3572 11.608L40.9766 12.0057C41.9519 12.2424 42.6787 12.6046 43.157 13.0923C43.6352 13.5753 43.8743 14.1979 43.8743 14.9602C43.8743 15.5852 43.6944 16.1439 43.3345 16.6364C42.9794 17.1288 42.4822 17.517 41.843 17.8011C41.2038 18.0852 40.4605 18.2273 39.6129 18.2273C38.5002 18.2273 37.5793 17.9858 36.8501 17.5028C36.121 17.0199 35.6593 16.3144 35.4652 15.3864L37.0561 14.9886C37.2076 15.5758 37.4941 16.0161 37.9155 16.3097C38.3416 16.6032 38.898 16.75 39.5845 16.75C40.3658 16.75 40.986 16.5843 41.4453 16.2528C41.9093 15.9167 42.1413 15.5142 42.1413 15.0455C42.1413 14.6667 42.0088 14.3494 41.7436 14.0938C41.4785 13.8333 41.0713 13.6392 40.522 13.5114L38.7038 13.0852C37.7048 12.8485 36.9709 12.4815 36.5021 11.9844C36.0381 11.4825 35.8061 10.8551 35.8061 10.1023C35.8061 9.48674 35.9789 8.94223 36.3246 8.46875C36.675 7.99527 37.1508 7.62358 37.7521 7.35369C38.3582 7.08381 39.0447 6.94886 39.8118 6.94886C40.8913 6.94886 41.7389 7.18561 42.3544 7.65909C42.9747 8.13258 43.415 8.75758 43.6754 9.53409ZM48.869 18L45.5451 7.09091H47.3065L49.6644 15.4432H49.7781L52.1076 7.09091H53.8974L56.1985 15.4148H56.3121L58.6701 7.09091H60.4315L57.1076 18H55.4599L53.0735 9.61932H52.9031L50.5167 18H48.869ZM66.7081 18.2273C65.7232 18.2273 64.8591 17.9929 64.1158 17.5241C63.3771 17.0554 62.7995 16.3996 62.3828 15.5568C61.9709 14.714 61.7649 13.7292 61.7649 12.6023C61.7649 11.4659 61.9709 10.474 62.3828 9.62642C62.7995 8.77888 63.3771 8.12074 64.1158 7.65199C64.8591 7.18324 65.7232 6.94886 66.7081 6.94886C67.6929 6.94886 68.5547 7.18324 69.2933 7.65199C70.0367 8.12074 70.6143 8.77888 71.0263 9.62642C71.4429 10.474 71.6513 11.4659 71.6513 12.6023C71.6513 13.7292 71.4429 14.714 71.0263 15.5568C70.6143 16.3996 70.0367 17.0554 69.2933 17.5241C68.5547 17.9929 67.6929 18.2273 66.7081 18.2273ZM66.7081 16.7216C67.4562 16.7216 68.0717 16.5298 68.5547 16.1463C69.0376 15.7628 69.3951 15.2585 69.6271 14.6335C69.8591 14.0085 69.9751 13.3314 69.9751 12.6023C69.9751 11.8731 69.8591 11.1937 69.6271 10.5639C69.3951 9.93419 69.0376 9.42519 68.5547 9.03693C68.0717 8.64867 67.4562 8.45455 66.7081 8.45455C65.96 8.45455 65.3445 8.64867 64.8615 9.03693C64.3786 9.42519 64.0211 9.93419 63.7891 10.5639C63.5571 11.1937 63.4411 11.8731 63.4411 12.6023C63.4411 13.3314 63.5571 14.0085 63.7891 14.6335C64.0211 15.2585 64.3786 15.7628 64.8615 16.1463C65.3445 16.5298 65.96 16.7216 66.7081 16.7216ZM74.2099 18V7.09091H75.8292V8.73864H75.9428C76.1417 8.19886 76.5015 7.76089 77.0224 7.42472C77.5432 7.08854 78.1303 6.92045 78.7837 6.92045C78.9068 6.92045 79.0607 6.92282 79.2454 6.92756C79.43 6.93229 79.5697 6.93939 79.6644 6.94886V8.65341C79.6076 8.6392 79.4774 8.6179 79.2738 8.58949C79.0749 8.55634 78.8642 8.53977 78.6417 8.53977C78.1114 8.53977 77.6379 8.65104 77.2212 8.87358C76.8093 9.09138 76.4826 9.39441 76.2411 9.78267C76.0044 10.1662 75.886 10.6042 75.886 11.0966V18H74.2099ZM85.4386 18.2273C84.5295 18.2273 83.7269 17.9976 83.0309 17.5384C82.3349 17.0743 81.7904 16.4209 81.3974 15.5781C81.0044 14.7306 80.8079 13.7292 80.8079 12.5739C80.8079 11.428 81.0044 10.4337 81.3974 9.59091C81.7904 8.74811 82.3372 8.09706 83.038 7.63778C83.7388 7.1785 84.5484 6.94886 85.467 6.94886C86.1772 6.94886 86.7383 7.06723 87.1502 7.30398C87.5669 7.53598 87.8841 7.80114 88.1019 8.09943C88.3245 8.39299 88.4973 8.63447 88.6204 8.82386H88.7624V3.45455H90.4386V18H88.8192V16.3239H88.6204C88.4973 16.5227 88.3221 16.7737 88.0948 17.0767C87.8675 17.375 87.5432 17.6425 87.1218 17.8793C86.7004 18.1113 86.1393 18.2273 85.4386 18.2273ZM85.6658 16.7216C86.3382 16.7216 86.9064 16.5464 87.3704 16.196C87.8344 15.8409 88.1871 15.3509 88.4286 14.7259C88.6701 14.0961 88.7908 13.3693 88.7908 12.5455C88.7908 11.7311 88.6725 11.0185 88.4357 10.4077C88.199 9.79214 87.8486 9.31392 87.3846 8.97301C86.9206 8.62737 86.3477 8.45455 85.6658 8.45455C84.9556 8.45455 84.3638 8.63684 83.8903 9.00142C83.4215 9.36127 83.0688 9.85133 82.832 10.4716C82.6 11.0871 82.484 11.7784 82.484 12.5455C82.484 13.322 82.6024 14.0275 82.8391 14.6619C83.0806 15.2917 83.4357 15.7936 83.9045 16.1676C84.378 16.5369 84.9651 16.7216 85.6658 16.7216Z" fill="black"/>
<g clip-path="url(#clip0_380_1070)">
<path d="M607.92 65.92C605.641 67.6573 602.866 68.6198 600 68.6667C590.667 68.6667 585.333 58 585.333 58C586.992 54.9092 589.292 52.2088 592.08 50.08M597.2 47.6533C598.118 47.4385 599.058 47.3311 600 47.3333C609.333 47.3333 614.667 58 614.667 58C613.857 59.5141 612.892 60.9396 611.787 62.2533M602.827 60.8267C602.461 61.2197 602.019 61.5349 601.528 61.7535C601.038 61.9721 600.508 62.0897 599.971 62.0992C599.434 62.1086 598.9 62.0098 598.402 61.8087C597.904 61.6075 597.452 61.308 597.072 60.9282C596.692 60.5484 596.393 60.0959 596.192 59.5979C595.99 59.0998 595.892 58.5663 595.901 58.0292C595.91 57.4921 596.028 56.9625 596.247 56.4718C596.465 55.9811 596.781 55.5395 597.173 55.1733" stroke="black" stroke-width="2" stroke-linecap="round" stroke-linejoin="round"/>
<path d="M585.333 43.3333L614.667 72.6667" stroke="black" stroke-width="2" stroke-linecap="round" stroke-linejoin="round"/>
</g>
<path d="M624 85H0V87H624V85Z" fill="#E5E5E5" mask="url(#path-2-inside-1_380_1070)"/>
<defs>
<clipPath id="clip0_380_1070">
<rect width="32" height="32" fill="white" transform="translate(584 42)"/>
</clipPath>
</defs>
</svg>
