<svg width="80" height="80" viewBox="0 0 80 80" fill="none" xmlns="http://www.w3.org/2000/svg">
<path d="M40 73.3334C58.4095 73.3334 73.3333 58.4095 73.3333 40C73.3333 21.5905 58.4095 6.66669 40 6.66669C21.5905 6.66669 6.66663 21.5905 6.66663 40C6.66663 58.4095 21.5905 73.3334 40 73.3334Z" stroke="url(#paint0_linear_924_2767)" stroke-width="4" stroke-linecap="round" stroke-linejoin="round"/>
<path d="M26.6666 46.6667C26.6666 46.6667 31.6666 53.3334 40 53.3334C48.3333 53.3334 53.3333 46.6667 53.3333 46.6667" stroke="url(#paint1_linear_924_2767)" stroke-width="4" stroke-linecap="round" stroke-linejoin="round"/>
<path d="M30 30H30.0333" stroke="url(#paint2_linear_924_2767)" stroke-width="4" stroke-linecap="round" stroke-linejoin="round"/>
<path d="M50 30H50.0333" stroke="url(#paint3_linear_924_2767)" stroke-width="4" stroke-linecap="round" stroke-linejoin="round"/>
<defs>
<linearGradient id="paint0_linear_924_2767" x1="6.66663" y1="40" x2="73.3333" y2="40" gradientUnits="userSpaceOnUse">
<stop stop-color="#ED3984"/>
<stop offset="0.015625" stop-color="#ED3984"/>
<stop offset="1" stop-color="#7452C8"/>
</linearGradient>
<linearGradient id="paint1_linear_924_2767" x1="26.6666" y1="50" x2="53.3333" y2="50" gradientUnits="userSpaceOnUse">
<stop stop-color="#ED3984"/>
<stop offset="0.015625" stop-color="#ED3984"/>
<stop offset="1" stop-color="#7452C8"/>
</linearGradient>
<linearGradient id="paint2_linear_924_2767" x1="30" y1="30.5" x2="30.0333" y2="30.5" gradientUnits="userSpaceOnUse">
<stop stop-color="#ED3984"/>
<stop offset="0.015625" stop-color="#ED3984"/>
<stop offset="1" stop-color="#7452C8"/>
</linearGradient>
<linearGradient id="paint3_linear_924_2767" x1="50" y1="30.5" x2="50.0333" y2="30.5" gradientUnits="userSpaceOnUse">
<stop stop-color="#ED3984"/>
<stop offset="0.015625" stop-color="#ED3984"/>
<stop offset="1" stop-color="#7452C8"/>
</linearGradient>
</defs>
</svg>
