<svg width="48" height="46" viewBox="0 0 48 46" fill="none" xmlns="http://www.w3.org/2000/svg">
<circle cx="24" cy="2.5" r="2.5" fill="white"/>
<circle cx="3.5" cy="39.2998" r="2.5" fill="white"/>
<circle cx="2.5" cy="2.5" r="2.5" transform="matrix(-1 0 0 1 47 36.7998)" fill="white"/>
<path fill-rule="evenodd" clip-rule="evenodd" d="M23.8203 10.5074C22.5026 10.4058 21.4526 9.33773 21.3644 8.00391C12.1184 9.29299 5 17.2667 5 26.9107C5 29.5517 5.53381 32.0674 6.49895 34.3548C6.7934 34.2419 7.1128 34.18 7.44652 34.18C8.35986 34.18 9.16601 34.6433 9.64694 35.3499L23.8203 27.1286V10.5074ZM9.21005 38.8948C9.76465 38.4012 10.1145 37.6786 10.1145 36.8735C10.1145 36.4371 10.0117 36.0249 9.82921 35.6603L24.0699 27.4L38.3107 35.6605C38.1283 36.025 38.0255 36.4372 38.0255 36.8735C38.0255 37.639 38.3417 38.3299 38.8495 38.8202C35.3679 43.1964 30.0098 45.9997 24 45.9997C18.0244 45.9997 12.693 43.2282 9.21005 38.8948ZM24.1803 10.5109C25.52 10.434 26.5951 9.35918 26.6879 8.01126C35.9084 9.32305 43 17.2848 43 26.9107C43 29.535 42.4729 32.0356 41.5193 34.3115C41.2592 34.2262 40.9817 34.18 40.6935 34.18C39.7801 34.18 38.9739 34.6434 38.493 35.35L24.1817 27.0487L24.1803 27.051V10.5109Z" fill="white"/>
</svg>
