<svg id="eYbGat4o82k1" xmlns="http://www.w3.org/2000/svg" xmlns:xlink="http://www.w3.org/1999/xlink" viewBox="0 0 300 300" shape-rendering="geometricPrecision" text-rendering="geometricPrecision">
<style><![CDATA[
#eYbGat4o82k3_tr {animation: eYbGat4o82k3_tr__tr 3000ms linear infinite normal forwards}@keyframes eYbGat4o82k3_tr__tr { 0% {transform: translate(121px,139.822155px) rotate(1800deg)} 66.666667% {transform: translate(121px,139.822155px) rotate(2160deg)} 100% {transform: translate(121px,139.822155px) rotate(2160deg)}} #eYbGat4o82k3_ts {animation: eYbGat4o82k3_ts__ts 3000ms linear infinite normal forwards}@keyframes eYbGat4o82k3_ts__ts { 0% {transform: scale(1,1)} 66.666667% {transform: scale(1,1)} 83.333333% {transform: scale(0,0)} 100% {transform: scale(1,1)}} #eYbGat4o82k3 {animation: eYbGat4o82k3_c_o 3000ms linear infinite normal forwards}@keyframes eYbGat4o82k3_c_o { 0% {opacity: 1} 66.666667% {opacity: 1} 83.333333% {opacity: 0} 100% {opacity: 1}}
]]></style>
<defs><linearGradient id="eYbGat4o82k4-fill" x1="-14" y1="-0.3503" x2="13.562" y2="-0.3503" spreadMethod="pad" gradientUnits="userSpaceOnUse" gradientTransform="translate(0 0)"><stop id="eYbGat4o82k4-fill-0" offset="3.81226%" stop-color="#ed3984"/><stop id="eYbGat4o82k4-fill-1" offset="100%" stop-color="#7552c8"/></linearGradient><linearGradient id="eYbGat4o82k5-fill" x1="14.1523" y1="-14" x2="-14.401597" y2="13.5618" spreadMethod="pad" gradientUnits="userSpaceOnUse" gradientTransform="translate(0 0)"><stop id="eYbGat4o82k5-fill-0" offset="0%" stop-color="#ed3984"/><stop id="eYbGat4o82k5-fill-1" offset="100%" stop-color="#7552c8"/></linearGradient><linearGradient id="eYbGat4o82k6-fill" x1="13.973" y1="-14" x2="-13.597" y2="13.562" spreadMethod="pad" gradientUnits="userSpaceOnUse" gradientTransform="translate(0 0)"><stop id="eYbGat4o82k6-fill-0" offset="0%" stop-color="#ed3984"/><stop id="eYbGat4o82k6-fill-1" offset="100%" stop-color="#7552c8"/></linearGradient><linearGradient id="eYbGat4o82k7-fill" x1="-15.7911" y1="77.3488" x2="227.786" y2="236.254" spreadMethod="pad" gradientUnits="userSpaceOnUse" gradientTransform="translate(0 0)"><stop id="eYbGat4o82k7-fill-0" offset="0%" stop-color="#ed3984"/><stop id="eYbGat4o82k7-fill-1" offset="100%" stop-color="#7552c8"/></linearGradient></defs><g transform="translate(29 10.177845)"><g id="eYbGat4o82k3_tr" transform="translate(121,139.822155) rotate(1800)"><g id="eYbGat4o82k3_ts" transform="scale(1,1)"><g id="eYbGat4o82k3" transform="translate(-121,-139.82216)"><circle r="14" transform="matrix(0 1-1 0 121 15)" fill="url(#eYbGat4o82k4-fill)"/><circle r="14" transform="matrix(0 1 1 0 14 201)" fill="url(#eYbGat4o82k5-fill)"/><circle r="14" transform="matrix(0 1-1 0 228 201)" fill="url(#eYbGat4o82k6-fill)"/></g></g></g><path d="M120.5,51.6909c-7.522-.2267-13.582-6.2991-13.836-13.8508C57.1189,44.8426,19,87.6127,19,139.329c0,13.562,2.6215,26.509,7.383,38.357c1.8958-.935,4.028-1.459,6.2822-1.459c5.0349,0,9.4612,2.618,12.0039,6.573L120.5,139.019v-87.3281Zm.445,88.2261L45.1803,183.66c1.1248,2.051,1.7649,4.408,1.7649,6.916c0,4.952-2.4968,9.318-6.2945,11.897C59.3215,226.428,88.3716,241.822,121,241.822c32.628,0,61.679-15.394,80.35-39.349-3.798-2.579-6.295-6.945-6.295-11.898c0-2.348.561-4.565,1.557-6.521L120.75,140.255l.195-.338Zm88.39,36.309c-5.194,0-9.74,2.786-12.239,6.953L121.5,139.533v-87.8466c7.469-.2915,13.466-6.347,13.709-13.8641C184.816,44.7696,223,87.5685,223,139.329c0,13.562-2.621,26.509-7.383,38.357-1.896-.935-4.028-1.46-6.282-1.46Z" clip-rule="evenodd" fill="url(#eYbGat4o82k7-fill)" fill-rule="evenodd"/></g></svg>
