<svg width="48" height="16" viewBox="0 0 48 16" fill="none" xmlns="http://www.w3.org/2000/svg">
<path d="M2.73757 0.454545V15H0.102628V0.454545H2.73757ZM18.0412 5.36222H15.3849C15.3092 4.92661 15.1695 4.54072 14.9659 4.20455C14.7623 3.86364 14.509 3.57481 14.206 3.33807C13.9029 3.10133 13.5573 2.92377 13.169 2.8054C12.7855 2.68229 12.3712 2.62074 11.9261 2.62074C11.1354 2.62074 10.4347 2.8196 9.82386 3.21733C9.21307 3.61032 8.73485 4.18797 8.3892 4.95028C8.04356 5.70786 7.87074 6.63352 7.87074 7.72727C7.87074 8.83996 8.04356 9.77746 8.3892 10.5398C8.73958 11.2973 9.2178 11.8703 9.82386 12.2585C10.4347 12.642 11.133 12.8338 11.919 12.8338C12.3546 12.8338 12.7618 12.777 13.1406 12.6634C13.5241 12.545 13.8674 12.3722 14.1705 12.1449C14.4782 11.9176 14.7363 11.6383 14.9446 11.3068C15.1577 10.9754 15.3045 10.5966 15.3849 10.1705L18.0412 10.1847C17.9418 10.8759 17.7263 11.5246 17.3949 12.1307C17.0682 12.7367 16.6397 13.2718 16.1094 13.7358C15.5791 14.1951 14.9588 14.5549 14.2486 14.8153C13.5384 15.071 12.75 15.1989 11.8835 15.1989C10.6051 15.1989 9.46402 14.9029 8.46023 14.3111C7.45644 13.7192 6.66572 12.8646 6.08807 11.7472C5.51042 10.6297 5.22159 9.28977 5.22159 7.72727C5.22159 6.16004 5.51278 4.82008 6.09517 3.70739C6.67756 2.58996 7.47064 1.73532 8.47443 1.14347C9.47822 0.551609 10.6146 0.255681 11.8835 0.255681C12.6932 0.255681 13.446 0.369318 14.142 0.59659C14.8381 0.823863 15.4583 1.15767 16.0028 1.59801C16.5473 2.03362 16.9948 2.56866 17.3452 3.20312C17.7003 3.83286 17.9323 4.55256 18.0412 5.36222ZM33.4513 7.72727C33.4513 9.29451 33.1578 10.6368 32.5707 11.7543C31.9883 12.867 31.1928 13.7192 30.1843 14.3111C29.1805 14.9029 28.0418 15.1989 26.7681 15.1989C25.4944 15.1989 24.3533 14.9029 23.3448 14.3111C22.341 13.7145 21.5456 12.8598 20.9585 11.7472C20.3761 10.6297 20.0849 9.28977 20.0849 7.72727C20.0849 6.16004 20.3761 4.82008 20.9585 3.70739C21.5456 2.58996 22.341 1.73532 23.3448 1.14347C24.3533 0.551609 25.4944 0.255681 26.7681 0.255681C28.0418 0.255681 29.1805 0.551609 30.1843 1.14347C31.1928 1.73532 31.9883 2.58996 32.5707 3.70739C33.1578 4.82008 33.4513 6.16004 33.4513 7.72727ZM30.8022 7.72727C30.8022 6.62405 30.6294 5.69366 30.2837 4.93608C29.9428 4.17377 29.4693 3.59848 28.8633 3.21023C28.2572 2.81723 27.5588 2.62074 26.7681 2.62074C25.9774 2.62074 25.279 2.81723 24.6729 3.21023C24.0669 3.59848 23.591 4.17377 23.2454 4.93608C22.9045 5.69366 22.734 6.62405 22.734 7.72727C22.734 8.83049 22.9045 9.76326 23.2454 10.5256C23.591 11.2831 24.0669 11.8584 24.6729 12.2514C25.279 12.6397 25.9774 12.8338 26.7681 12.8338C27.5588 12.8338 28.2572 12.6397 28.8633 12.2514C29.4693 11.8584 29.9428 11.2831 30.2837 10.5256C30.6294 9.76326 30.8022 8.83049 30.8022 7.72727ZM47.8956 0.454545V15H45.5518L38.6982 5.09233H38.5774V15H35.9425V0.454545H38.3004L45.147 10.3693H45.2749V0.454545H47.8956Z" fill="black"/>
</svg>
