<svg width="80" height="80" viewBox="0 0 80 80" fill="none" xmlns="http://www.w3.org/2000/svg">
<path d="M70 38.3333C70.0115 42.7329 68.9836 47.0729 67 51C64.6481 55.7058 61.0325 59.6639 56.5582 62.4309C52.0838 65.1979 46.9275 66.6646 41.6667 66.6666C37.2671 66.6781 32.9271 65.6502 29 63.6666L10 70L16.3333 51C14.3498 47.0729 13.3219 42.7329 13.3333 38.3333C13.3354 33.0725 14.802 27.9161 17.5691 23.4418C20.3361 18.9675 24.2942 15.3519 29 13C32.9271 11.0164 37.2671 9.9885 41.6667 9.99997H43.3333C50.2812 10.3833 56.8435 13.3158 61.7638 18.2362C66.6841 23.1565 69.6167 29.7188 70 36.6666V38.3333Z" stroke="url(#paint0_linear_934_1853)" stroke-width="4" stroke-linecap="round" stroke-linejoin="round"/>
<defs>
<linearGradient id="paint0_linear_934_1853" x1="10" y1="39.9999" x2="70.0001" y2="39.9999" gradientUnits="userSpaceOnUse">
<stop stop-color="#ED3984"/>
<stop offset="0.015625" stop-color="#ED3984"/>
<stop offset="1" stop-color="#7452C8"/>
</linearGradient>
</defs>
</svg>
